solid OpenSCAD_Model
  facet normal -0.743138 -0.669138 0
    outer loop
      vertex -20.0739 -22.2943 -7.5
      vertex -24.2705 -17.6336 7.5
      vertex -24.2705 -17.6336 -7.5
    endloop
  endfacet
  facet normal -0.743138 -0.669138 0
    outer loop
      vertex -24.2705 -17.6336 7.5
      vertex -20.0739 -22.2943 -7.5
      vertex -20.0739 -22.2943 7.5
    endloop
  endfacet
  facet normal 0.95106 0.309008 0
    outer loop
      vertex 29.3444 6.23735 7.5
      vertex 27.4064 12.2021 -7.5
      vertex 27.4064 12.2021 7.5
    endloop
  endfacet
  facet normal 0.95106 0.309008 0
    outer loop
      vertex 27.4064 12.2021 -7.5
      vertex 29.3444 6.23735 7.5
      vertex 29.3444 6.23735 -7.5
    endloop
  endfacet
  facet normal 0.994521 0.104533 0
    outer loop
      vertex 30 0 7.5
      vertex 29.3444 6.23735 -7.5
      vertex 29.3444 6.23735 7.5
    endloop
  endfacet
  facet normal 0.994521 0.104533 0
    outer loop
      vertex 29.3444 6.23735 -7.5
      vertex 30 0 7.5
      vertex 30 0 -7.5
    endloop
  endfacet
  facet normal 0.866024 0.500003 0
    outer loop
      vertex 27.4064 12.2021 7.5
      vertex 24.2705 17.6336 -7.5
      vertex 24.2705 17.6336 7.5
    endloop
  endfacet
  facet normal 0.866024 0.500003 0
    outer loop
      vertex 24.2705 17.6336 -7.5
      vertex 27.4064 12.2021 7.5
      vertex 27.4064 12.2021 -7.5
    endloop
  endfacet
  facet normal 0.95106 -0.309008 0
    outer loop
      vertex 27.4064 -12.2021 7.5
      vertex 29.3444 -6.23735 -7.5
      vertex 29.3444 -6.23735 7.5
    endloop
  endfacet
  facet normal 0.95106 -0.309008 0
    outer loop
      vertex 29.3444 -6.23735 -7.5
      vertex 27.4064 -12.2021 7.5
      vertex 27.4064 -12.2021 -7.5
    endloop
  endfacet
  facet normal 0.587795 -0.80901 0
    outer loop
      vertex 15 -25.9808 -7.5
      vertex 20.0739 -22.2943 7.5
      vertex 15 -25.9808 7.5
    endloop
  endfacet
  facet normal 0.587795 -0.80901 0
    outer loop
      vertex 20.0739 -22.2943 7.5
      vertex 15 -25.9808 -7.5
      vertex 20.0739 -22.2943 -7.5
    endloop
  endfacet
  facet normal 0.743138 -0.669138 0
    outer loop
      vertex 20.0739 -22.2943 7.5
      vertex 24.2705 -17.6336 -7.5
      vertex 24.2705 -17.6336 7.5
    endloop
  endfacet
  facet normal 0.743138 -0.669138 0
    outer loop
      vertex 24.2705 -17.6336 -7.5
      vertex 20.0739 -22.2943 7.5
      vertex 20.0739 -22.2943 -7.5
    endloop
  endfacet
  facet normal 0.994521 -0.104533 0
    outer loop
      vertex 29.3444 -6.23735 7.5
      vertex 30 0 -7.5
      vertex 30 0 7.5
    endloop
  endfacet
  facet normal 0.994521 -0.104533 0
    outer loop
      vertex 30 0 -7.5
      vertex 29.3444 -6.23735 7.5
      vertex 29.3444 -6.23735 -7.5
    endloop
  endfacet
  facet normal -0.406732 -0.913547 0
    outer loop
      vertex -15 -25.9808 -7.5
      vertex -9.27051 -28.5317 7.5
      vertex -15 -25.9808 7.5
    endloop
  endfacet
  facet normal -0.406732 -0.913547 -0
    outer loop
      vertex -9.27051 -28.5317 7.5
      vertex -15 -25.9808 -7.5
      vertex -9.27051 -28.5317 -7.5
    endloop
  endfacet
  facet normal 0.406732 0.913547 -0
    outer loop
      vertex 15 25.9808 -7.5
      vertex 9.27051 28.5317 7.5
      vertex 15 25.9808 7.5
    endloop
  endfacet
  facet normal 0.406732 0.913547 0
    outer loop
      vertex 9.27051 28.5317 7.5
      vertex 15 25.9808 -7.5
      vertex 9.27051 28.5317 -7.5
    endloop
  endfacet
  facet normal 0.743138 0.669138 0
    outer loop
      vertex 24.2705 17.6336 7.5
      vertex 20.0739 22.2943 -7.5
      vertex 20.0739 22.2943 7.5
    endloop
  endfacet
  facet normal 0.743138 0.669138 0
    outer loop
      vertex 20.0739 22.2943 -7.5
      vertex 24.2705 17.6336 7.5
      vertex 24.2705 17.6336 -7.5
    endloop
  endfacet
  facet normal -0.587795 -0.80901 0
    outer loop
      vertex -20.0739 -22.2943 -7.5
      vertex -15 -25.9808 7.5
      vertex -20.0739 -22.2943 7.5
    endloop
  endfacet
  facet normal -0.587795 -0.80901 -0
    outer loop
      vertex -15 -25.9808 7.5
      vertex -20.0739 -22.2943 -7.5
      vertex -15 -25.9808 -7.5
    endloop
  endfacet
  facet normal -0.743138 0.669138 0
    outer loop
      vertex -24.2705 17.6336 -7.5
      vertex -20.0739 22.2943 7.5
      vertex -20.0739 22.2943 -7.5
    endloop
  endfacet
  facet normal -0.743138 0.669138 0
    outer loop
      vertex -20.0739 22.2943 7.5
      vertex -24.2705 17.6336 -7.5
      vertex -24.2705 17.6336 7.5
    endloop
  endfacet
  facet normal 0 1 -0
    outer loop
      vertex 3.13585 29.8357 -7.5
      vertex -3.13585 29.8357 7.5
      vertex 3.13585 29.8357 7.5
    endloop
  endfacet
  facet normal 0 1 0
    outer loop
      vertex -3.13585 29.8357 7.5
      vertex 3.13585 29.8357 -7.5
      vertex -3.13585 29.8357 -7.5
    endloop
  endfacet
  facet normal 0.406732 -0.913547 0
    outer loop
      vertex 9.27051 -28.5317 -7.5
      vertex 15 -25.9808 7.5
      vertex 9.27051 -28.5317 7.5
    endloop
  endfacet
  facet normal 0.406732 -0.913547 0
    outer loop
      vertex 15 -25.9808 7.5
      vertex 9.27051 -28.5317 -7.5
      vertex 15 -25.9808 -7.5
    endloop
  endfacet
  facet normal 0.207917 -0.978146 0
    outer loop
      vertex 3.13585 -29.8357 -7.5
      vertex 9.27051 -28.5317 7.5
      vertex 3.13585 -29.8357 7.5
    endloop
  endfacet
  facet normal 0.207917 -0.978146 0
    outer loop
      vertex 9.27051 -28.5317 7.5
      vertex 3.13585 -29.8357 -7.5
      vertex 9.27051 -28.5317 -7.5
    endloop
  endfacet
  facet normal -0.95106 0.309008 0
    outer loop
      vertex -29.3444 6.23735 -7.5
      vertex -27.4064 12.2021 7.5
      vertex -27.4064 12.2021 -7.5
    endloop
  endfacet
  facet normal -0.95106 0.309008 0
    outer loop
      vertex -27.4064 12.2021 7.5
      vertex -29.3444 6.23735 -7.5
      vertex -29.3444 6.23735 7.5
    endloop
  endfacet
  facet normal 0 0 -1
    outer loop
      vertex 10 0 -7.5
      vertex 30 0 -7.5
      vertex 29.3444 -6.23735 -7.5
    endloop
  endfacet
  facet normal 0 0 -1
    outer loop
      vertex 9.78148 -2.07912 -7.5
      vertex 29.3444 -6.23735 -7.5
      vertex 27.4064 -12.2021 -7.5
    endloop
  endfacet
  facet normal 0 0 -1
    outer loop
      vertex 30 0 -7.5
      vertex 10 0 -7.5
      vertex 29.3444 6.23735 -7.5
    endloop
  endfacet
  facet normal 0 0 -1
    outer loop
      vertex 9.13545 -4.06737 -7.5
      vertex 27.4064 -12.2021 -7.5
      vertex 24.2705 -17.6336 -7.5
    endloop
  endfacet
  facet normal 0 0 -1
    outer loop
      vertex 9.78148 2.07912 -7.5
      vertex 29.3444 6.23735 -7.5
      vertex 10 0 -7.5
    endloop
  endfacet
  facet normal 0 0 -1
    outer loop
      vertex 8.09017 -5.87785 -7.5
      vertex 24.2705 -17.6336 -7.5
      vertex 20.0739 -22.2943 -7.5
    endloop
  endfacet
  facet normal -0 0 -1
    outer loop
      vertex 29.3444 6.23735 -7.5
      vertex 9.78148 2.07912 -7.5
      vertex 27.4064 12.2021 -7.5
    endloop
  endfacet
  facet normal 0 0 -1
    outer loop
      vertex 6.69131 -7.43145 -7.5
      vertex 20.0739 -22.2943 -7.5
      vertex 15 -25.9808 -7.5
    endloop
  endfacet
  facet normal 0 0 -1
    outer loop
      vertex 9.13545 4.06737 -7.5
      vertex 27.4064 12.2021 -7.5
      vertex 9.78148 2.07912 -7.5
    endloop
  endfacet
  facet normal -0 0 -1
    outer loop
      vertex 27.4064 12.2021 -7.5
      vertex 9.13545 4.06737 -7.5
      vertex 24.2705 17.6336 -7.5
    endloop
  endfacet
  facet normal 0 0 -1
    outer loop
      vertex 29.3444 -6.23735 -7.5
      vertex 9.78148 -2.07912 -7.5
      vertex 10 0 -7.5
    endloop
  endfacet
  facet normal 0 0 -1
    outer loop
      vertex 5 -8.66025 -7.5
      vertex 15 -25.9808 -7.5
      vertex 9.27051 -28.5317 -7.5
    endloop
  endfacet
  facet normal 0 0 -1
    outer loop
      vertex 27.4064 -12.2021 -7.5
      vertex 9.13545 -4.06737 -7.5
      vertex 9.78148 -2.07912 -7.5
    endloop
  endfacet
  facet normal 0 0 -1
    outer loop
      vertex 24.2705 -17.6336 -7.5
      vertex 8.09017 -5.87785 -7.5
      vertex 9.13545 -4.06737 -7.5
    endloop
  endfacet
  facet normal 0 0 -1
    outer loop
      vertex 20.0739 -22.2943 -7.5
      vertex 6.69131 -7.43145 -7.5
      vertex 8.09017 -5.87785 -7.5
    endloop
  endfacet
  facet normal 0 0 -1
    outer loop
      vertex 15 -25.9808 -7.5
      vertex 5 -8.66025 -7.5
      vertex 6.69131 -7.43145 -7.5
    endloop
  endfacet
  facet normal 0 0 -1
    outer loop
      vertex 3.09017 -9.51056 -7.5
      vertex 9.27051 -28.5317 -7.5
      vertex 3.13585 -29.8357 -7.5
    endloop
  endfacet
  facet normal 0 0 -1
    outer loop
      vertex 9.27051 -28.5317 -7.5
      vertex 3.09017 -9.51056 -7.5
      vertex 5 -8.66025 -7.5
    endloop
  endfacet
  facet normal 0 0 -1
    outer loop
      vertex 3.13585 -29.8357 -7.5
      vertex 1.04528 -9.94522 -7.5
      vertex 3.09017 -9.51056 -7.5
    endloop
  endfacet
  facet normal 0 0 -1
    outer loop
      vertex 3.13585 -29.8357 -7.5
      vertex -1.04528 -9.94522 -7.5
      vertex 1.04528 -9.94522 -7.5
    endloop
  endfacet
  facet normal 0 0 -1
    outer loop
      vertex -3.13585 -29.8357 -7.5
      vertex -1.04528 -9.94522 -7.5
      vertex 3.13585 -29.8357 -7.5
    endloop
  endfacet
  facet normal -0 0 -1
    outer loop
      vertex -1.04528 -9.94522 -7.5
      vertex -3.13585 -29.8357 -7.5
      vertex -3.09017 -9.51056 -7.5
    endloop
  endfacet
  facet normal 0 0 -1
    outer loop
      vertex -9.27051 -28.5317 -7.5
      vertex -3.09017 -9.51056 -7.5
      vertex -3.13585 -29.8357 -7.5
    endloop
  endfacet
  facet normal -0 0 -1
    outer loop
      vertex -3.09017 -9.51056 -7.5
      vertex -9.27051 -28.5317 -7.5
      vertex -5 -8.66025 -7.5
    endloop
  endfacet
  facet normal 0 0 -1
    outer loop
      vertex -15 -25.9808 -7.5
      vertex -5 -8.66025 -7.5
      vertex -9.27051 -28.5317 -7.5
    endloop
  endfacet
  facet normal -0 0 -1
    outer loop
      vertex -5 -8.66025 -7.5
      vertex -15 -25.9808 -7.5
      vertex -6.69131 -7.43145 -7.5
    endloop
  endfacet
  facet normal 0 0 -1
    outer loop
      vertex -20.0739 -22.2943 -7.5
      vertex -6.69131 -7.43145 -7.5
      vertex -15 -25.9808 -7.5
    endloop
  endfacet
  facet normal -0 0 -1
    outer loop
      vertex -6.69131 -7.43145 -7.5
      vertex -20.0739 -22.2943 -7.5
      vertex -8.09017 -5.87785 -7.5
    endloop
  endfacet
  facet normal 0 0 -1
    outer loop
      vertex -24.2705 -17.6336 -7.5
      vertex -8.09017 -5.87785 -7.5
      vertex -20.0739 -22.2943 -7.5
    endloop
  endfacet
  facet normal -0 0 -1
    outer loop
      vertex -8.09017 -5.87785 -7.5
      vertex -24.2705 -17.6336 -7.5
      vertex -9.13545 -4.06737 -7.5
    endloop
  endfacet
  facet normal 0 0 -1
    outer loop
      vertex 8.09017 5.87785 -7.5
      vertex 24.2705 17.6336 -7.5
      vertex 9.13545 4.06737 -7.5
    endloop
  endfacet
  facet normal -0 0 -1
    outer loop
      vertex 24.2705 17.6336 -7.5
      vertex 8.09017 5.87785 -7.5
      vertex 20.0739 22.2943 -7.5
    endloop
  endfacet
  facet normal 0 0 -1
    outer loop
      vertex 6.69131 7.43145 -7.5
      vertex 20.0739 22.2943 -7.5
      vertex 8.09017 5.87785 -7.5
    endloop
  endfacet
  facet normal -0 0 -1
    outer loop
      vertex 20.0739 22.2943 -7.5
      vertex 6.69131 7.43145 -7.5
      vertex 15 25.9808 -7.5
    endloop
  endfacet
  facet normal 0 0 -1
    outer loop
      vertex 5 8.66025 -7.5
      vertex 15 25.9808 -7.5
      vertex 6.69131 7.43145 -7.5
    endloop
  endfacet
  facet normal -0 0 -1
    outer loop
      vertex 15 25.9808 -7.5
      vertex 5 8.66025 -7.5
      vertex 9.27051 28.5317 -7.5
    endloop
  endfacet
  facet normal 0 0 -1
    outer loop
      vertex 3.09017 9.51056 -7.5
      vertex 9.27051 28.5317 -7.5
      vertex 5 8.66025 -7.5
    endloop
  endfacet
  facet normal -0 0 -1
    outer loop
      vertex 9.27051 28.5317 -7.5
      vertex 3.09017 9.51056 -7.5
      vertex 3.13585 29.8357 -7.5
    endloop
  endfacet
  facet normal 0 0 -1
    outer loop
      vertex 1.04528 9.94522 -7.5
      vertex 3.13585 29.8357 -7.5
      vertex 3.09017 9.51056 -7.5
    endloop
  endfacet
  facet normal 0 0 -1
    outer loop
      vertex -1.04528 9.94522 -7.5
      vertex 3.13585 29.8357 -7.5
      vertex 1.04528 9.94522 -7.5
    endloop
  endfacet
  facet normal 0 0 -1
    outer loop
      vertex -3.13585 29.8357 -7.5
      vertex -1.04528 9.94522 -7.5
      vertex -3.09017 9.51056 -7.5
    endloop
  endfacet
  facet normal 0 0 -1
    outer loop
      vertex -1.04528 9.94522 -7.5
      vertex -3.13585 29.8357 -7.5
      vertex 3.13585 29.8357 -7.5
    endloop
  endfacet
  facet normal 0 0 -1
    outer loop
      vertex -9.27051 28.5317 -7.5
      vertex -3.09017 9.51056 -7.5
      vertex -5 8.66025 -7.5
    endloop
  endfacet
  facet normal 0 0 -1
    outer loop
      vertex -15 25.9808 -7.5
      vertex -5 8.66025 -7.5
      vertex -6.69131 7.43145 -7.5
    endloop
  endfacet
  facet normal 0 0 -1
    outer loop
      vertex -20.0739 22.2943 -7.5
      vertex -6.69131 7.43145 -7.5
      vertex -8.09017 5.87785 -7.5
    endloop
  endfacet
  facet normal 0 0 -1
    outer loop
      vertex -24.2705 17.6336 -7.5
      vertex -8.09017 5.87785 -7.5
      vertex -9.13545 4.06737 -7.5
    endloop
  endfacet
  facet normal 0 0 -1
    outer loop
      vertex -3.09017 9.51056 -7.5
      vertex -9.27051 28.5317 -7.5
      vertex -3.13585 29.8357 -7.5
    endloop
  endfacet
  facet normal 0 0 -1
    outer loop
      vertex -27.4064 12.2021 -7.5
      vertex -9.13545 4.06737 -7.5
      vertex -9.78148 2.07912 -7.5
    endloop
  endfacet
  facet normal 0 0 -1
    outer loop
      vertex -29.3444 6.23735 -7.5
      vertex -9.78148 2.07912 -7.5
      vertex -10 0 -7.5
    endloop
  endfacet
  facet normal 0 0 -1
    outer loop
      vertex -27.4064 -12.2021 -7.5
      vertex -9.13545 -4.06737 -7.5
      vertex -24.2705 -17.6336 -7.5
    endloop
  endfacet
  facet normal 0 0 -1
    outer loop
      vertex -5 8.66025 -7.5
      vertex -15 25.9808 -7.5
      vertex -9.27051 28.5317 -7.5
    endloop
  endfacet
  facet normal -0 0 -1
    outer loop
      vertex -9.13545 -4.06737 -7.5
      vertex -27.4064 -12.2021 -7.5
      vertex -9.78148 -2.07912 -7.5
    endloop
  endfacet
  facet normal 0 0 -1
    outer loop
      vertex -6.69131 7.43145 -7.5
      vertex -20.0739 22.2943 -7.5
      vertex -15 25.9808 -7.5
    endloop
  endfacet
  facet normal 0 0 -1
    outer loop
      vertex -29.3444 -6.23735 -7.5
      vertex -9.78148 -2.07912 -7.5
      vertex -27.4064 -12.2021 -7.5
    endloop
  endfacet
  facet normal 0 0 -1
    outer loop
      vertex -8.09017 5.87785 -7.5
      vertex -24.2705 17.6336 -7.5
      vertex -20.0739 22.2943 -7.5
    endloop
  endfacet
  facet normal -0 0 -1
    outer loop
      vertex -9.78148 -2.07912 -7.5
      vertex -29.3444 -6.23735 -7.5
      vertex -10 0 -7.5
    endloop
  endfacet
  facet normal 0 0 -1
    outer loop
      vertex -9.13545 4.06737 -7.5
      vertex -27.4064 12.2021 -7.5
      vertex -24.2705 17.6336 -7.5
    endloop
  endfacet
  facet normal 0 0 -1
    outer loop
      vertex -30 0 -7.5
      vertex -10 0 -7.5
      vertex -29.3444 -6.23735 -7.5
    endloop
  endfacet
  facet normal 0 0 -1
    outer loop
      vertex -9.78148 2.07912 -7.5
      vertex -29.3444 6.23735 -7.5
      vertex -27.4064 12.2021 -7.5
    endloop
  endfacet
  facet normal 0 0 -1
    outer loop
      vertex -10 0 -7.5
      vertex -30 0 -7.5
      vertex -29.3444 6.23735 -7.5
    endloop
  endfacet
  facet normal -0.95106 -0.309008 0
    outer loop
      vertex -27.4064 -12.2021 -7.5
      vertex -29.3444 -6.23735 7.5
      vertex -29.3444 -6.23735 -7.5
    endloop
  endfacet
  facet normal -0.95106 -0.309008 0
    outer loop
      vertex -29.3444 -6.23735 7.5
      vertex -27.4064 -12.2021 -7.5
      vertex -27.4064 -12.2021 7.5
    endloop
  endfacet
  facet normal -0.406732 0.913547 0
    outer loop
      vertex -9.27051 28.5317 -7.5
      vertex -15 25.9808 7.5
      vertex -9.27051 28.5317 7.5
    endloop
  endfacet
  facet normal -0.406732 0.913547 0
    outer loop
      vertex -15 25.9808 7.5
      vertex -9.27051 28.5317 -7.5
      vertex -15 25.9808 -7.5
    endloop
  endfacet
  facet normal 0 0 1
    outer loop
      vertex 10 0 7.5
      vertex 30 0 7.5
      vertex 29.3444 6.23735 7.5
    endloop
  endfacet
  facet normal 0 0 1
    outer loop
      vertex 9.78148 2.07912 7.5
      vertex 29.3444 6.23735 7.5
      vertex 27.4064 12.2021 7.5
    endloop
  endfacet
  facet normal 0 0 1
    outer loop
      vertex 30 0 7.5
      vertex 10 0 7.5
      vertex 29.3444 -6.23735 7.5
    endloop
  endfacet
  facet normal 0 0 1
    outer loop
      vertex 9.13545 4.06737 7.5
      vertex 27.4064 12.2021 7.5
      vertex 24.2705 17.6336 7.5
    endloop
  endfacet
  facet normal -0 0 1
    outer loop
      vertex 9.78148 -2.07912 7.5
      vertex 29.3444 -6.23735 7.5
      vertex 10 0 7.5
    endloop
  endfacet
  facet normal 0 0 1
    outer loop
      vertex 8.09017 5.87785 7.5
      vertex 24.2705 17.6336 7.5
      vertex 20.0739 22.2943 7.5
    endloop
  endfacet
  facet normal 0 0 1
    outer loop
      vertex 29.3444 -6.23735 7.5
      vertex 9.78148 -2.07912 7.5
      vertex 27.4064 -12.2021 7.5
    endloop
  endfacet
  facet normal 0 0 1
    outer loop
      vertex 6.69131 7.43145 7.5
      vertex 20.0739 22.2943 7.5
      vertex 15 25.9808 7.5
    endloop
  endfacet
  facet normal -0 0 1
    outer loop
      vertex 9.13545 -4.06737 7.5
      vertex 27.4064 -12.2021 7.5
      vertex 9.78148 -2.07912 7.5
    endloop
  endfacet
  facet normal 0 0 1
    outer loop
      vertex 27.4064 -12.2021 7.5
      vertex 9.13545 -4.06737 7.5
      vertex 24.2705 -17.6336 7.5
    endloop
  endfacet
  facet normal 0 0 1
    outer loop
      vertex 29.3444 6.23735 7.5
      vertex 9.78148 2.07912 7.5
      vertex 10 0 7.5
    endloop
  endfacet
  facet normal 0 0 1
    outer loop
      vertex 5 8.66025 7.5
      vertex 15 25.9808 7.5
      vertex 9.27051 28.5317 7.5
    endloop
  endfacet
  facet normal 0 0 1
    outer loop
      vertex 27.4064 12.2021 7.5
      vertex 9.13545 4.06737 7.5
      vertex 9.78148 2.07912 7.5
    endloop
  endfacet
  facet normal 0 0 1
    outer loop
      vertex 24.2705 17.6336 7.5
      vertex 8.09017 5.87785 7.5
      vertex 9.13545 4.06737 7.5
    endloop
  endfacet
  facet normal 0 0 1
    outer loop
      vertex 20.0739 22.2943 7.5
      vertex 6.69131 7.43145 7.5
      vertex 8.09017 5.87785 7.5
    endloop
  endfacet
  facet normal 0 0 1
    outer loop
      vertex 15 25.9808 7.5
      vertex 5 8.66025 7.5
      vertex 6.69131 7.43145 7.5
    endloop
  endfacet
  facet normal 0 0 1
    outer loop
      vertex 3.09017 9.51056 7.5
      vertex 9.27051 28.5317 7.5
      vertex 3.13585 29.8357 7.5
    endloop
  endfacet
  facet normal 0 0 1
    outer loop
      vertex 9.27051 28.5317 7.5
      vertex 3.09017 9.51056 7.5
      vertex 5 8.66025 7.5
    endloop
  endfacet
  facet normal 0 0 1
    outer loop
      vertex 3.13585 29.8357 7.5
      vertex 1.04528 9.94522 7.5
      vertex 3.09017 9.51056 7.5
    endloop
  endfacet
  facet normal 0 0 1
    outer loop
      vertex 3.13585 29.8357 7.5
      vertex -1.04528 9.94522 7.5
      vertex 1.04528 9.94522 7.5
    endloop
  endfacet
  facet normal -0 0 1
    outer loop
      vertex -3.13585 29.8357 7.5
      vertex -1.04528 9.94522 7.5
      vertex 3.13585 29.8357 7.5
    endloop
  endfacet
  facet normal 0 0 1
    outer loop
      vertex -1.04528 9.94522 7.5
      vertex -3.13585 29.8357 7.5
      vertex -3.09017 9.51056 7.5
    endloop
  endfacet
  facet normal -0 0 1
    outer loop
      vertex -9.27051 28.5317 7.5
      vertex -3.09017 9.51056 7.5
      vertex -3.13585 29.8357 7.5
    endloop
  endfacet
  facet normal 0 0 1
    outer loop
      vertex -3.09017 9.51056 7.5
      vertex -9.27051 28.5317 7.5
      vertex -5 8.66025 7.5
    endloop
  endfacet
  facet normal -0 0 1
    outer loop
      vertex -15 25.9808 7.5
      vertex -5 8.66025 7.5
      vertex -9.27051 28.5317 7.5
    endloop
  endfacet
  facet normal 0 0 1
    outer loop
      vertex -5 8.66025 7.5
      vertex -15 25.9808 7.5
      vertex -6.69131 7.43145 7.5
    endloop
  endfacet
  facet normal -0 0 1
    outer loop
      vertex -20.0739 22.2943 7.5
      vertex -6.69131 7.43145 7.5
      vertex -15 25.9808 7.5
    endloop
  endfacet
  facet normal 0 0 1
    outer loop
      vertex -6.69131 7.43145 7.5
      vertex -20.0739 22.2943 7.5
      vertex -8.09017 5.87785 7.5
    endloop
  endfacet
  facet normal -0 0 1
    outer loop
      vertex -24.2705 17.6336 7.5
      vertex -8.09017 5.87785 7.5
      vertex -20.0739 22.2943 7.5
    endloop
  endfacet
  facet normal 0 0 1
    outer loop
      vertex -8.09017 5.87785 7.5
      vertex -24.2705 17.6336 7.5
      vertex -9.13545 4.06737 7.5
    endloop
  endfacet
  facet normal -0 0 1
    outer loop
      vertex 8.09017 -5.87785 7.5
      vertex 24.2705 -17.6336 7.5
      vertex 9.13545 -4.06737 7.5
    endloop
  endfacet
  facet normal 0 0 1
    outer loop
      vertex 24.2705 -17.6336 7.5
      vertex 8.09017 -5.87785 7.5
      vertex 20.0739 -22.2943 7.5
    endloop
  endfacet
  facet normal -0 0 1
    outer loop
      vertex 6.69131 -7.43145 7.5
      vertex 20.0739 -22.2943 7.5
      vertex 8.09017 -5.87785 7.5
    endloop
  endfacet
  facet normal 0 0 1
    outer loop
      vertex 20.0739 -22.2943 7.5
      vertex 6.69131 -7.43145 7.5
      vertex 15 -25.9808 7.5
    endloop
  endfacet
  facet normal -0 0 1
    outer loop
      vertex 5 -8.66025 7.5
      vertex 15 -25.9808 7.5
      vertex 6.69131 -7.43145 7.5
    endloop
  endfacet
  facet normal 0 0 1
    outer loop
      vertex 15 -25.9808 7.5
      vertex 5 -8.66025 7.5
      vertex 9.27051 -28.5317 7.5
    endloop
  endfacet
  facet normal -0 0 1
    outer loop
      vertex 3.09017 -9.51056 7.5
      vertex 9.27051 -28.5317 7.5
      vertex 5 -8.66025 7.5
    endloop
  endfacet
  facet normal 0 0 1
    outer loop
      vertex 9.27051 -28.5317 7.5
      vertex 3.09017 -9.51056 7.5
      vertex 3.13585 -29.8357 7.5
    endloop
  endfacet
  facet normal -0 0 1
    outer loop
      vertex 1.04528 -9.94522 7.5
      vertex 3.13585 -29.8357 7.5
      vertex 3.09017 -9.51056 7.5
    endloop
  endfacet
  facet normal -0 0 1
    outer loop
      vertex -1.04528 -9.94522 7.5
      vertex 3.13585 -29.8357 7.5
      vertex 1.04528 -9.94522 7.5
    endloop
  endfacet
  facet normal 0 0 1
    outer loop
      vertex -3.13585 -29.8357 7.5
      vertex -1.04528 -9.94522 7.5
      vertex -3.09017 -9.51056 7.5
    endloop
  endfacet
  facet normal 0 0 1
    outer loop
      vertex -1.04528 -9.94522 7.5
      vertex -3.13585 -29.8357 7.5
      vertex 3.13585 -29.8357 7.5
    endloop
  endfacet
  facet normal 0 0 1
    outer loop
      vertex -9.27051 -28.5317 7.5
      vertex -3.09017 -9.51056 7.5
      vertex -5 -8.66025 7.5
    endloop
  endfacet
  facet normal 0 0 1
    outer loop
      vertex -15 -25.9808 7.5
      vertex -5 -8.66025 7.5
      vertex -6.69131 -7.43145 7.5
    endloop
  endfacet
  facet normal 0 0 1
    outer loop
      vertex -20.0739 -22.2943 7.5
      vertex -6.69131 -7.43145 7.5
      vertex -8.09017 -5.87785 7.5
    endloop
  endfacet
  facet normal 0 0 1
    outer loop
      vertex -24.2705 -17.6336 7.5
      vertex -8.09017 -5.87785 7.5
      vertex -9.13545 -4.06737 7.5
    endloop
  endfacet
  facet normal 0 0 1
    outer loop
      vertex -3.09017 -9.51056 7.5
      vertex -9.27051 -28.5317 7.5
      vertex -3.13585 -29.8357 7.5
    endloop
  endfacet
  facet normal 0 0 1
    outer loop
      vertex -27.4064 -12.2021 7.5
      vertex -9.13545 -4.06737 7.5
      vertex -9.78148 -2.07912 7.5
    endloop
  endfacet
  facet normal 0 0 1
    outer loop
      vertex -29.3444 -6.23735 7.5
      vertex -9.78148 -2.07912 7.5
      vertex -10 0 7.5
    endloop
  endfacet
  facet normal -0 0 1
    outer loop
      vertex -27.4064 12.2021 7.5
      vertex -9.13545 4.06737 7.5
      vertex -24.2705 17.6336 7.5
    endloop
  endfacet
  facet normal 0 0 1
    outer loop
      vertex -5 -8.66025 7.5
      vertex -15 -25.9808 7.5
      vertex -9.27051 -28.5317 7.5
    endloop
  endfacet
  facet normal 0 0 1
    outer loop
      vertex -9.13545 4.06737 7.5
      vertex -27.4064 12.2021 7.5
      vertex -9.78148 2.07912 7.5
    endloop
  endfacet
  facet normal 0 0 1
    outer loop
      vertex -6.69131 -7.43145 7.5
      vertex -20.0739 -22.2943 7.5
      vertex -15 -25.9808 7.5
    endloop
  endfacet
  facet normal -0 0 1
    outer loop
      vertex -29.3444 6.23735 7.5
      vertex -9.78148 2.07912 7.5
      vertex -27.4064 12.2021 7.5
    endloop
  endfacet
  facet normal 0 0 1
    outer loop
      vertex -8.09017 -5.87785 7.5
      vertex -24.2705 -17.6336 7.5
      vertex -20.0739 -22.2943 7.5
    endloop
  endfacet
  facet normal 0 0 1
    outer loop
      vertex -9.78148 2.07912 7.5
      vertex -29.3444 6.23735 7.5
      vertex -10 0 7.5
    endloop
  endfacet
  facet normal 0 0 1
    outer loop
      vertex -9.13545 -4.06737 7.5
      vertex -27.4064 -12.2021 7.5
      vertex -24.2705 -17.6336 7.5
    endloop
  endfacet
  facet normal 0 0 1
    outer loop
      vertex -30 0 7.5
      vertex -10 0 7.5
      vertex -29.3444 6.23735 7.5
    endloop
  endfacet
  facet normal 0 0 1
    outer loop
      vertex -9.78148 -2.07912 7.5
      vertex -29.3444 -6.23735 7.5
      vertex -27.4064 -12.2021 7.5
    endloop
  endfacet
  facet normal 0 0 1
    outer loop
      vertex -10 0 7.5
      vertex -30 0 7.5
      vertex -29.3444 -6.23735 7.5
    endloop
  endfacet
  facet normal -0.207917 -0.978146 0
    outer loop
      vertex -9.27051 -28.5317 -7.5
      vertex -3.13585 -29.8357 7.5
      vertex -9.27051 -28.5317 7.5
    endloop
  endfacet
  facet normal -0.207917 -0.978146 -0
    outer loop
      vertex -3.13585 -29.8357 7.5
      vertex -9.27051 -28.5317 -7.5
      vertex -3.13585 -29.8357 -7.5
    endloop
  endfacet
  facet normal 0.207917 0.978146 -0
    outer loop
      vertex 9.27051 28.5317 -7.5
      vertex 3.13585 29.8357 7.5
      vertex 9.27051 28.5317 7.5
    endloop
  endfacet
  facet normal 0.207917 0.978146 0
    outer loop
      vertex 3.13585 29.8357 7.5
      vertex 9.27051 28.5317 -7.5
      vertex 3.13585 29.8357 -7.5
    endloop
  endfacet
  facet normal -0.994521 -0.104533 0
    outer loop
      vertex -29.3444 -6.23735 -7.5
      vertex -30 0 7.5
      vertex -30 0 -7.5
    endloop
  endfacet
  facet normal -0.994521 -0.104533 0
    outer loop
      vertex -30 0 7.5
      vertex -29.3444 -6.23735 -7.5
      vertex -29.3444 -6.23735 7.5
    endloop
  endfacet
  facet normal -0.866024 -0.500003 0
    outer loop
      vertex -24.2705 -17.6336 -7.5
      vertex -27.4064 -12.2021 7.5
      vertex -27.4064 -12.2021 -7.5
    endloop
  endfacet
  facet normal -0.866024 -0.500003 0
    outer loop
      vertex -27.4064 -12.2021 7.5
      vertex -24.2705 -17.6336 -7.5
      vertex -24.2705 -17.6336 7.5
    endloop
  endfacet
  facet normal -0.866024 0.500003 0
    outer loop
      vertex -27.4064 12.2021 -7.5
      vertex -24.2705 17.6336 7.5
      vertex -24.2705 17.6336 -7.5
    endloop
  endfacet
  facet normal -0.866024 0.500003 0
    outer loop
      vertex -24.2705 17.6336 7.5
      vertex -27.4064 12.2021 -7.5
      vertex -27.4064 12.2021 7.5
    endloop
  endfacet
  facet normal 0.866024 -0.500003 0
    outer loop
      vertex 24.2705 -17.6336 7.5
      vertex 27.4064 -12.2021 -7.5
      vertex 27.4064 -12.2021 7.5
    endloop
  endfacet
  facet normal 0.866024 -0.500003 0
    outer loop
      vertex 27.4064 -12.2021 -7.5
      vertex 24.2705 -17.6336 7.5
      vertex 24.2705 -17.6336 -7.5
    endloop
  endfacet
  facet normal 0.587795 0.80901 -0
    outer loop
      vertex 20.0739 22.2943 -7.5
      vertex 15 25.9808 7.5
      vertex 20.0739 22.2943 7.5
    endloop
  endfacet
  facet normal 0.587795 0.80901 0
    outer loop
      vertex 15 25.9808 7.5
      vertex 20.0739 22.2943 -7.5
      vertex 15 25.9808 -7.5
    endloop
  endfacet
  facet normal -0.587795 0.80901 0
    outer loop
      vertex -15 25.9808 -7.5
      vertex -20.0739 22.2943 7.5
      vertex -15 25.9808 7.5
    endloop
  endfacet
  facet normal -0.587795 0.80901 0
    outer loop
      vertex -20.0739 22.2943 7.5
      vertex -15 25.9808 -7.5
      vertex -20.0739 22.2943 -7.5
    endloop
  endfacet
  facet normal -0.207917 0.978146 0
    outer loop
      vertex -3.13585 29.8357 -7.5
      vertex -9.27051 28.5317 7.5
      vertex -3.13585 29.8357 7.5
    endloop
  endfacet
  facet normal -0.207917 0.978146 0
    outer loop
      vertex -9.27051 28.5317 7.5
      vertex -3.13585 29.8357 -7.5
      vertex -9.27051 28.5317 -7.5
    endloop
  endfacet
  facet normal 0 -1 0
    outer loop
      vertex -3.13585 -29.8357 -7.5
      vertex 3.13585 -29.8357 7.5
      vertex -3.13585 -29.8357 7.5
    endloop
  endfacet
  facet normal 0 -1 -0
    outer loop
      vertex 3.13585 -29.8357 7.5
      vertex -3.13585 -29.8357 -7.5
      vertex 3.13585 -29.8357 -7.5
    endloop
  endfacet
  facet normal -0.994521 0.104533 0
    outer loop
      vertex -30 0 -7.5
      vertex -29.3444 6.23735 7.5
      vertex -29.3444 6.23735 -7.5
    endloop
  endfacet
  facet normal -0.994521 0.104533 0
    outer loop
      vertex -29.3444 6.23735 7.5
      vertex -30 0 -7.5
      vertex -30 0 7.5
    endloop
  endfacet
  facet normal 0.95106 0.309008 0
    outer loop
      vertex 229.344 6.23735 7.5
      vertex 227.406 12.2021 -7.5
      vertex 227.406 12.2021 7.5
    endloop
  endfacet
  facet normal 0.95106 0.309008 0
    outer loop
      vertex 227.406 12.2021 -7.5
      vertex 229.344 6.23735 7.5
      vertex 229.344 6.23735 -7.5
    endloop
  endfacet
  facet normal 0.994515 0.104596 0
    outer loop
      vertex 230 0 7.5
      vertex 229.344 6.23735 -7.5
      vertex 229.344 6.23735 7.5
    endloop
  endfacet
  facet normal 0.994515 0.104596 0
    outer loop
      vertex 229.344 6.23735 -7.5
      vertex 230 0 7.5
      vertex 230 0 -7.5
    endloop
  endfacet
  facet normal 0.866086 0.499895 0
    outer loop
      vertex 227.406 12.2021 7.5
      vertex 224.271 17.6336 -7.5
      vertex 224.271 17.6336 7.5
    endloop
  endfacet
  facet normal 0.866086 0.499895 0
    outer loop
      vertex 224.271 17.6336 -7.5
      vertex 227.406 12.2021 7.5
      vertex 227.406 12.2021 -7.5
    endloop
  endfacet
  facet normal 0.95106 -0.309008 0
    outer loop
      vertex 227.406 -12.2021 7.5
      vertex 229.344 -6.23735 -7.5
      vertex 229.344 -6.23735 7.5
    endloop
  endfacet
  facet normal 0.95106 -0.309008 0
    outer loop
      vertex 229.344 -6.23735 -7.5
      vertex 227.406 -12.2021 7.5
      vertex 227.406 -12.2021 -7.5
    endloop
  endfacet
  facet normal 0.406761 -0.913535 0
    outer loop
      vertex 209.271 -28.5317 -7.5
      vertex 215 -25.9808 7.5
      vertex 209.271 -28.5317 7.5
    endloop
  endfacet
  facet normal 0.406761 -0.913535 0
    outer loop
      vertex 215 -25.9808 7.5
      vertex 209.271 -28.5317 -7.5
      vertex 215 -25.9808 -7.5
    endloop
  endfacet
  facet normal -0.994515 0.104596 0
    outer loop
      vertex 170 0 -7.5
      vertex 170.656 6.23735 7.5
      vertex 170.656 6.23735 -7.5
    endloop
  endfacet
  facet normal -0.994515 0.104596 0
    outer loop
      vertex 170.656 6.23735 7.5
      vertex 170 0 -7.5
      vertex 170 0 7.5
    endloop
  endfacet
  facet normal -0.406761 -0.913535 0
    outer loop
      vertex 185 -25.9808 -7.5
      vertex 190.729 -28.5317 7.5
      vertex 185 -25.9808 7.5
    endloop
  endfacet
  facet normal -0.406761 -0.913535 -0
    outer loop
      vertex 190.729 -28.5317 7.5
      vertex 185 -25.9808 -7.5
      vertex 190.729 -28.5317 -7.5
    endloop
  endfacet
  facet normal 0.994515 -0.104596 0
    outer loop
      vertex 229.344 -6.23735 7.5
      vertex 230 0 -7.5
      vertex 230 0 7.5
    endloop
  endfacet
  facet normal 0.994515 -0.104596 0
    outer loop
      vertex 230 0 -7.5
      vertex 229.344 -6.23735 7.5
      vertex 229.344 -6.23735 -7.5
    endloop
  endfacet
  facet normal 0.207906 -0.978149 0
    outer loop
      vertex 203.136 -29.8357 -7.5
      vertex 209.271 -28.5317 7.5
      vertex 203.136 -29.8357 7.5
    endloop
  endfacet
  facet normal 0.207906 -0.978149 0
    outer loop
      vertex 209.271 -28.5317 7.5
      vertex 203.136 -29.8357 -7.5
      vertex 209.271 -28.5317 -7.5
    endloop
  endfacet
  facet normal -0.587788 0.809015 0
    outer loop
      vertex 185 25.9808 -7.5
      vertex 179.926 22.2943 7.5
      vertex 185 25.9808 7.5
    endloop
  endfacet
  facet normal -0.587788 0.809015 0
    outer loop
      vertex 179.926 22.2943 7.5
      vertex 185 25.9808 -7.5
      vertex 179.926 22.2943 -7.5
    endloop
  endfacet
  facet normal -0.95106 0.309008 0
    outer loop
      vertex 170.656 6.23735 -7.5
      vertex 172.594 12.2021 7.5
      vertex 172.594 12.2021 -7.5
    endloop
  endfacet
  facet normal -0.95106 0.309008 0
    outer loop
      vertex 172.594 12.2021 7.5
      vertex 170.656 6.23735 -7.5
      vertex 170.656 6.23735 7.5
    endloop
  endfacet
  facet normal -0.95106 -0.309008 0
    outer loop
      vertex 172.594 -12.2021 -7.5
      vertex 170.656 -6.23735 7.5
      vertex 170.656 -6.23735 -7.5
    endloop
  endfacet
  facet normal -0.95106 -0.309008 0
    outer loop
      vertex 170.656 -6.23735 7.5
      vertex 172.594 -12.2021 -7.5
      vertex 172.594 -12.2021 7.5
    endloop
  endfacet
  facet normal -0.743106 -0.669173 0
    outer loop
      vertex 179.926 -22.2943 -7.5
      vertex 175.729 -17.6336 7.5
      vertex 175.729 -17.6336 -7.5
    endloop
  endfacet
  facet normal -0.743106 -0.669173 0
    outer loop
      vertex 175.729 -17.6336 7.5
      vertex 179.926 -22.2943 -7.5
      vertex 179.926 -22.2943 7.5
    endloop
  endfacet
  facet normal 0.207906 0.978149 -0
    outer loop
      vertex 209.271 28.5317 -7.5
      vertex 203.136 29.8357 7.5
      vertex 209.271 28.5317 7.5
    endloop
  endfacet
  facet normal 0.207906 0.978149 0
    outer loop
      vertex 203.136 29.8357 7.5
      vertex 209.271 28.5317 -7.5
      vertex 203.136 29.8357 -7.5
    endloop
  endfacet
  facet normal -0.406761 0.913535 0
    outer loop
      vertex 190.729 28.5317 -7.5
      vertex 185 25.9808 7.5
      vertex 190.729 28.5317 7.5
    endloop
  endfacet
  facet normal -0.406761 0.913535 0
    outer loop
      vertex 185 25.9808 7.5
      vertex 190.729 28.5317 -7.5
      vertex 185 25.9808 -7.5
    endloop
  endfacet
  facet normal 0 -1 0
    outer loop
      vertex 196.864 -29.8357 -7.5
      vertex 203.136 -29.8357 7.5
      vertex 196.864 -29.8357 7.5
    endloop
  endfacet
  facet normal 0 -1 -0
    outer loop
      vertex 203.136 -29.8357 7.5
      vertex 196.864 -29.8357 -7.5
      vertex 203.136 -29.8357 -7.5
    endloop
  endfacet
  facet normal -0.994515 -0.104596 0
    outer loop
      vertex 170.656 -6.23735 -7.5
      vertex 170 0 7.5
      vertex 170 0 -7.5
    endloop
  endfacet
  facet normal -0.994515 -0.104596 0
    outer loop
      vertex 170 0 7.5
      vertex 170.656 -6.23735 -7.5
      vertex 170.656 -6.23735 7.5
    endloop
  endfacet
  facet normal 0.743106 -0.669173 0
    outer loop
      vertex 220.074 -22.2943 7.5
      vertex 224.271 -17.6336 -7.5
      vertex 224.271 -17.6336 7.5
    endloop
  endfacet
  facet normal 0.743106 -0.669173 0
    outer loop
      vertex 224.271 -17.6336 -7.5
      vertex 220.074 -22.2943 7.5
      vertex 220.074 -22.2943 -7.5
    endloop
  endfacet
  facet normal -0.207906 0.978149 0
    outer loop
      vertex 196.864 29.8357 -7.5
      vertex 190.729 28.5317 7.5
      vertex 196.864 29.8357 7.5
    endloop
  endfacet
  facet normal -0.207906 0.978149 0
    outer loop
      vertex 190.729 28.5317 7.5
      vertex 196.864 29.8357 -7.5
      vertex 190.729 28.5317 -7.5
    endloop
  endfacet
  facet normal -0.866086 -0.499895 0
    outer loop
      vertex 175.729 -17.6336 -7.5
      vertex 172.594 -12.2021 7.5
      vertex 172.594 -12.2021 -7.5
    endloop
  endfacet
  facet normal -0.866086 -0.499895 0
    outer loop
      vertex 172.594 -12.2021 7.5
      vertex 175.729 -17.6336 -7.5
      vertex 175.729 -17.6336 7.5
    endloop
  endfacet
  facet normal 0.743106 0.669173 0
    outer loop
      vertex 224.271 17.6336 7.5
      vertex 220.074 22.2943 -7.5
      vertex 220.074 22.2943 7.5
    endloop
  endfacet
  facet normal 0.743106 0.669173 0
    outer loop
      vertex 220.074 22.2943 -7.5
      vertex 224.271 17.6336 7.5
      vertex 224.271 17.6336 -7.5
    endloop
  endfacet
  facet normal 0.866086 -0.499895 0
    outer loop
      vertex 224.271 -17.6336 7.5
      vertex 227.406 -12.2021 -7.5
      vertex 227.406 -12.2021 7.5
    endloop
  endfacet
  facet normal 0.866086 -0.499895 0
    outer loop
      vertex 227.406 -12.2021 -7.5
      vertex 224.271 -17.6336 7.5
      vertex 224.271 -17.6336 -7.5
    endloop
  endfacet
  facet normal 0.587788 0.809015 -0
    outer loop
      vertex 220.074 22.2943 -7.5
      vertex 215 25.9808 7.5
      vertex 220.074 22.2943 7.5
    endloop
  endfacet
  facet normal 0.587788 0.809015 0
    outer loop
      vertex 215 25.9808 7.5
      vertex 220.074 22.2943 -7.5
      vertex 215 25.9808 -7.5
    endloop
  endfacet
  facet normal 0 1 -0
    outer loop
      vertex 203.136 29.8357 -7.5
      vertex 196.864 29.8357 7.5
      vertex 203.136 29.8357 7.5
    endloop
  endfacet
  facet normal 0 1 0
    outer loop
      vertex 196.864 29.8357 7.5
      vertex 203.136 29.8357 -7.5
      vertex 196.864 29.8357 -7.5
    endloop
  endfacet
  facet normal 0.406761 0.913535 -0
    outer loop
      vertex 215 25.9808 -7.5
      vertex 209.271 28.5317 7.5
      vertex 215 25.9808 7.5
    endloop
  endfacet
  facet normal 0.406761 0.913535 0
    outer loop
      vertex 209.271 28.5317 7.5
      vertex 215 25.9808 -7.5
      vertex 209.271 28.5317 -7.5
    endloop
  endfacet
  facet normal -0.207906 -0.978149 0
    outer loop
      vertex 190.729 -28.5317 -7.5
      vertex 196.864 -29.8357 7.5
      vertex 190.729 -28.5317 7.5
    endloop
  endfacet
  facet normal -0.207906 -0.978149 -0
    outer loop
      vertex 196.864 -29.8357 7.5
      vertex 190.729 -28.5317 -7.5
      vertex 196.864 -29.8357 -7.5
    endloop
  endfacet
  facet normal 0.587788 -0.809015 0
    outer loop
      vertex 215 -25.9808 -7.5
      vertex 220.074 -22.2943 7.5
      vertex 215 -25.9808 7.5
    endloop
  endfacet
  facet normal 0.587788 -0.809015 0
    outer loop
      vertex 220.074 -22.2943 7.5
      vertex 215 -25.9808 -7.5
      vertex 220.074 -22.2943 -7.5
    endloop
  endfacet
  facet normal -0.743106 0.669173 0
    outer loop
      vertex 175.729 17.6336 -7.5
      vertex 179.926 22.2943 7.5
      vertex 179.926 22.2943 -7.5
    endloop
  endfacet
  facet normal -0.743106 0.669173 0
    outer loop
      vertex 179.926 22.2943 7.5
      vertex 175.729 17.6336 -7.5
      vertex 175.729 17.6336 7.5
    endloop
  endfacet
  facet normal -0.587788 -0.809015 0
    outer loop
      vertex 179.926 -22.2943 -7.5
      vertex 185 -25.9808 7.5
      vertex 179.926 -22.2943 7.5
    endloop
  endfacet
  facet normal -0.587788 -0.809015 -0
    outer loop
      vertex 185 -25.9808 7.5
      vertex 179.926 -22.2943 -7.5
      vertex 185 -25.9808 -7.5
    endloop
  endfacet
  facet normal 0 0 1
    outer loop
      vertex 229.344 6.23735 7.5
      vertex 229.344 -6.23735 7.5
      vertex 230 0 7.5
    endloop
  endfacet
  facet normal 0 0 1
    outer loop
      vertex 227.406 12.2021 7.5
      vertex 229.344 -6.23735 7.5
      vertex 229.344 6.23735 7.5
    endloop
  endfacet
  facet normal 0 0 1
    outer loop
      vertex 227.406 12.2021 7.5
      vertex 227.406 -12.2021 7.5
      vertex 229.344 -6.23735 7.5
    endloop
  endfacet
  facet normal 0 0 1
    outer loop
      vertex 224.271 17.6336 7.5
      vertex 227.406 -12.2021 7.5
      vertex 227.406 12.2021 7.5
    endloop
  endfacet
  facet normal 0 0 1
    outer loop
      vertex 224.271 17.6336 7.5
      vertex 224.271 -17.6336 7.5
      vertex 227.406 -12.2021 7.5
    endloop
  endfacet
  facet normal 0 0 1
    outer loop
      vertex 220.074 22.2943 7.5
      vertex 224.271 -17.6336 7.5
      vertex 224.271 17.6336 7.5
    endloop
  endfacet
  facet normal 0 0 1
    outer loop
      vertex 220.074 22.2943 7.5
      vertex 220.074 -22.2943 7.5
      vertex 224.271 -17.6336 7.5
    endloop
  endfacet
  facet normal 0 0 1
    outer loop
      vertex 215 25.9808 7.5
      vertex 220.074 -22.2943 7.5
      vertex 220.074 22.2943 7.5
    endloop
  endfacet
  facet normal 0 0 1
    outer loop
      vertex 215 25.9808 7.5
      vertex 215 -25.9808 7.5
      vertex 220.074 -22.2943 7.5
    endloop
  endfacet
  facet normal 0 0 1
    outer loop
      vertex 209.271 28.5317 7.5
      vertex 215 -25.9808 7.5
      vertex 215 25.9808 7.5
    endloop
  endfacet
  facet normal 0 0 1
    outer loop
      vertex 209.271 28.5317 7.5
      vertex 209.271 -28.5317 7.5
      vertex 215 -25.9808 7.5
    endloop
  endfacet
  facet normal 0 0 1
    outer loop
      vertex 203.136 29.8357 7.5
      vertex 209.271 -28.5317 7.5
      vertex 209.271 28.5317 7.5
    endloop
  endfacet
  facet normal 0 0 1
    outer loop
      vertex 203.136 29.8357 7.5
      vertex 203.136 -29.8357 7.5
      vertex 209.271 -28.5317 7.5
    endloop
  endfacet
  facet normal -0 0 1
    outer loop
      vertex 196.864 29.8357 7.5
      vertex 203.136 -29.8357 7.5
      vertex 203.136 29.8357 7.5
    endloop
  endfacet
  facet normal 0 0 1
    outer loop
      vertex 196.864 29.8357 7.5
      vertex 196.864 -29.8357 7.5
      vertex 203.136 -29.8357 7.5
    endloop
  endfacet
  facet normal -0 0 1
    outer loop
      vertex 190.729 28.5317 7.5
      vertex 196.864 -29.8357 7.5
      vertex 196.864 29.8357 7.5
    endloop
  endfacet
  facet normal 0 0 1
    outer loop
      vertex 190.729 28.5317 7.5
      vertex 190.729 -28.5317 7.5
      vertex 196.864 -29.8357 7.5
    endloop
  endfacet
  facet normal -0 0 1
    outer loop
      vertex 185 25.9808 7.5
      vertex 190.729 -28.5317 7.5
      vertex 190.729 28.5317 7.5
    endloop
  endfacet
  facet normal 0 0 1
    outer loop
      vertex 185 25.9808 7.5
      vertex 185 -25.9808 7.5
      vertex 190.729 -28.5317 7.5
    endloop
  endfacet
  facet normal -0 0 1
    outer loop
      vertex 179.926 22.2943 7.5
      vertex 185 -25.9808 7.5
      vertex 185 25.9808 7.5
    endloop
  endfacet
  facet normal 0 0 1
    outer loop
      vertex 179.926 22.2943 7.5
      vertex 179.926 -22.2943 7.5
      vertex 185 -25.9808 7.5
    endloop
  endfacet
  facet normal -0 0 1
    outer loop
      vertex 175.729 17.6336 7.5
      vertex 179.926 -22.2943 7.5
      vertex 179.926 22.2943 7.5
    endloop
  endfacet
  facet normal 0 0 1
    outer loop
      vertex 175.729 17.6336 7.5
      vertex 175.729 -17.6336 7.5
      vertex 179.926 -22.2943 7.5
    endloop
  endfacet
  facet normal -0 0 1
    outer loop
      vertex 172.594 12.2021 7.5
      vertex 175.729 -17.6336 7.5
      vertex 175.729 17.6336 7.5
    endloop
  endfacet
  facet normal 0 0 1
    outer loop
      vertex 172.594 12.2021 7.5
      vertex 172.594 -12.2021 7.5
      vertex 175.729 -17.6336 7.5
    endloop
  endfacet
  facet normal -0 0 1
    outer loop
      vertex 170.656 6.23735 7.5
      vertex 172.594 -12.2021 7.5
      vertex 172.594 12.2021 7.5
    endloop
  endfacet
  facet normal 0 0 1
    outer loop
      vertex 170.656 6.23735 7.5
      vertex 170.656 -6.23735 7.5
      vertex 172.594 -12.2021 7.5
    endloop
  endfacet
  facet normal 0 -0 1
    outer loop
      vertex 170.656 -6.23735 7.5
      vertex 170.656 6.23735 7.5
      vertex 170 0 7.5
    endloop
  endfacet
  facet normal 0 0 -1
    outer loop
      vertex 229.344 -6.23735 -7.5
      vertex 229.344 6.23735 -7.5
      vertex 230 0 -7.5
    endloop
  endfacet
  facet normal 0 0 -1
    outer loop
      vertex 227.406 -12.2021 -7.5
      vertex 229.344 6.23735 -7.5
      vertex 229.344 -6.23735 -7.5
    endloop
  endfacet
  facet normal 0 0 -1
    outer loop
      vertex 227.406 -12.2021 -7.5
      vertex 227.406 12.2021 -7.5
      vertex 229.344 6.23735 -7.5
    endloop
  endfacet
  facet normal 0 0 -1
    outer loop
      vertex 224.271 -17.6336 -7.5
      vertex 227.406 12.2021 -7.5
      vertex 227.406 -12.2021 -7.5
    endloop
  endfacet
  facet normal 0 0 -1
    outer loop
      vertex 224.271 -17.6336 -7.5
      vertex 224.271 17.6336 -7.5
      vertex 227.406 12.2021 -7.5
    endloop
  endfacet
  facet normal 0 0 -1
    outer loop
      vertex 220.074 -22.2943 -7.5
      vertex 224.271 17.6336 -7.5
      vertex 224.271 -17.6336 -7.5
    endloop
  endfacet
  facet normal 0 0 -1
    outer loop
      vertex 220.074 -22.2943 -7.5
      vertex 220.074 22.2943 -7.5
      vertex 224.271 17.6336 -7.5
    endloop
  endfacet
  facet normal 0 0 -1
    outer loop
      vertex 215 -25.9808 -7.5
      vertex 220.074 22.2943 -7.5
      vertex 220.074 -22.2943 -7.5
    endloop
  endfacet
  facet normal 0 0 -1
    outer loop
      vertex 215 -25.9808 -7.5
      vertex 215 25.9808 -7.5
      vertex 220.074 22.2943 -7.5
    endloop
  endfacet
  facet normal 0 0 -1
    outer loop
      vertex 209.271 -28.5317 -7.5
      vertex 215 25.9808 -7.5
      vertex 215 -25.9808 -7.5
    endloop
  endfacet
  facet normal 0 0 -1
    outer loop
      vertex 209.271 -28.5317 -7.5
      vertex 209.271 28.5317 -7.5
      vertex 215 25.9808 -7.5
    endloop
  endfacet
  facet normal 0 0 -1
    outer loop
      vertex 203.136 -29.8357 -7.5
      vertex 209.271 28.5317 -7.5
      vertex 209.271 -28.5317 -7.5
    endloop
  endfacet
  facet normal 0 0 -1
    outer loop
      vertex 203.136 -29.8357 -7.5
      vertex 203.136 29.8357 -7.5
      vertex 209.271 28.5317 -7.5
    endloop
  endfacet
  facet normal 0 0 -1
    outer loop
      vertex 196.864 -29.8357 -7.5
      vertex 203.136 29.8357 -7.5
      vertex 203.136 -29.8357 -7.5
    endloop
  endfacet
  facet normal 0 0 -1
    outer loop
      vertex 196.864 -29.8357 -7.5
      vertex 196.864 29.8357 -7.5
      vertex 203.136 29.8357 -7.5
    endloop
  endfacet
  facet normal 0 0 -1
    outer loop
      vertex 190.729 -28.5317 -7.5
      vertex 196.864 29.8357 -7.5
      vertex 196.864 -29.8357 -7.5
    endloop
  endfacet
  facet normal 0 0 -1
    outer loop
      vertex 190.729 -28.5317 -7.5
      vertex 190.729 28.5317 -7.5
      vertex 196.864 29.8357 -7.5
    endloop
  endfacet
  facet normal 0 0 -1
    outer loop
      vertex 185 -25.9808 -7.5
      vertex 190.729 28.5317 -7.5
      vertex 190.729 -28.5317 -7.5
    endloop
  endfacet
  facet normal 0 0 -1
    outer loop
      vertex 185 -25.9808 -7.5
      vertex 185 25.9808 -7.5
      vertex 190.729 28.5317 -7.5
    endloop
  endfacet
  facet normal 0 0 -1
    outer loop
      vertex 179.926 -22.2943 -7.5
      vertex 185 25.9808 -7.5
      vertex 185 -25.9808 -7.5
    endloop
  endfacet
  facet normal 0 0 -1
    outer loop
      vertex 179.926 -22.2943 -7.5
      vertex 179.926 22.2943 -7.5
      vertex 185 25.9808 -7.5
    endloop
  endfacet
  facet normal 0 0 -1
    outer loop
      vertex 175.729 -17.6336 -7.5
      vertex 179.926 22.2943 -7.5
      vertex 179.926 -22.2943 -7.5
    endloop
  endfacet
  facet normal 0 0 -1
    outer loop
      vertex 175.729 -17.6336 -7.5
      vertex 175.729 17.6336 -7.5
      vertex 179.926 22.2943 -7.5
    endloop
  endfacet
  facet normal 0 0 -1
    outer loop
      vertex 172.594 -12.2021 -7.5
      vertex 175.729 17.6336 -7.5
      vertex 175.729 -17.6336 -7.5
    endloop
  endfacet
  facet normal 0 0 -1
    outer loop
      vertex 172.594 -12.2021 -7.5
      vertex 172.594 12.2021 -7.5
      vertex 175.729 17.6336 -7.5
    endloop
  endfacet
  facet normal 0 0 -1
    outer loop
      vertex 170.656 -6.23735 -7.5
      vertex 172.594 12.2021 -7.5
      vertex 172.594 -12.2021 -7.5
    endloop
  endfacet
  facet normal 0 0 -1
    outer loop
      vertex 170.656 -6.23735 -7.5
      vertex 170.656 6.23735 -7.5
      vertex 172.594 12.2021 -7.5
    endloop
  endfacet
  facet normal 0 -0 -1
    outer loop
      vertex 170.656 6.23735 -7.5
      vertex 170.656 -6.23735 -7.5
      vertex 170 0 -7.5
    endloop
  endfacet
  facet normal -0.866086 0.499895 0
    outer loop
      vertex 172.594 12.2021 -7.5
      vertex 175.729 17.6336 7.5
      vertex 175.729 17.6336 -7.5
    endloop
  endfacet
  facet normal -0.866086 0.499895 0
    outer loop
      vertex 175.729 17.6336 7.5
      vertex 172.594 12.2021 -7.5
      vertex 172.594 12.2021 7.5
    endloop
  endfacet
  facet normal 0.587783 0.809019 -0
    outer loop
      vertex 6.69131 7.43145 -100
      vertex 5 8.66025 -7.5
      vertex 6.69131 7.43145 -7.5
    endloop
  endfacet
  facet normal 0.587783 0.809019 0
    outer loop
      vertex 5 8.66025 -7.5
      vertex 6.69131 7.43145 -100
      vertex 5 8.66025 -100
    endloop
  endfacet
  facet normal 0.587783 0.809019 -0
    outer loop
      vertex 6.69131 7.43145 7.5
      vertex 5 8.66025 100
      vertex 6.69131 7.43145 100
    endloop
  endfacet
  facet normal 0.587783 0.809019 0
    outer loop
      vertex 5 8.66025 100
      vertex 6.69131 7.43145 7.5
      vertex 5 8.66025 7.5
    endloop
  endfacet
  facet normal -0.866026 0.5 0
    outer loop
      vertex -9.13545 4.06737 -100
      vertex -8.09017 5.87785 -7.5
      vertex -8.09017 5.87785 -100
    endloop
  endfacet
  facet normal -0.866026 0.5 0
    outer loop
      vertex -8.09017 5.87785 -7.5
      vertex -9.13545 4.06737 -100
      vertex -9.13545 4.06737 -7.5
    endloop
  endfacet
  facet normal -0.866026 0.5 0
    outer loop
      vertex -9.13545 4.06737 7.5
      vertex -8.09017 5.87785 100
      vertex -8.09017 5.87785 7.5
    endloop
  endfacet
  facet normal -0.866026 0.5 0
    outer loop
      vertex -8.09017 5.87785 100
      vertex -9.13545 4.06737 7.5
      vertex -9.13545 4.06737 100
    endloop
  endfacet
  facet normal 0.994522 -0.104526 0
    outer loop
      vertex 9.78148 -2.07912 -7.5
      vertex 10 0 -100
      vertex 10 0 -7.5
    endloop
  endfacet
  facet normal 0.994522 -0.104526 0
    outer loop
      vertex 10 0 -100
      vertex 9.78148 -2.07912 -7.5
      vertex 9.78148 -2.07912 -100
    endloop
  endfacet
  facet normal 0.994522 -0.104526 0
    outer loop
      vertex 9.78148 -2.07912 100
      vertex 10 0 7.5
      vertex 10 0 100
    endloop
  endfacet
  facet normal 0.994522 -0.104526 0
    outer loop
      vertex 10 0 7.5
      vertex 9.78148 -2.07912 100
      vertex 9.78148 -2.07912 7.5
    endloop
  endfacet
  facet normal 0.587783 -0.809019 0
    outer loop
      vertex 5 -8.66025 -100
      vertex 6.69131 -7.43145 -7.5
      vertex 5 -8.66025 -7.5
    endloop
  endfacet
  facet normal 0.587783 -0.809019 0
    outer loop
      vertex 6.69131 -7.43145 -7.5
      vertex 5 -8.66025 -100
      vertex 6.69131 -7.43145 -100
    endloop
  endfacet
  facet normal 0.587783 -0.809019 0
    outer loop
      vertex 5 -8.66025 7.5
      vertex 6.69131 -7.43145 100
      vertex 5 -8.66025 100
    endloop
  endfacet
  facet normal 0.587783 -0.809019 0
    outer loop
      vertex 6.69131 -7.43145 100
      vertex 5 -8.66025 7.5
      vertex 6.69131 -7.43145 7.5
    endloop
  endfacet
  facet normal 0.866026 0.5 0
    outer loop
      vertex 9.13545 4.06737 -7.5
      vertex 8.09017 5.87785 -100
      vertex 8.09017 5.87785 -7.5
    endloop
  endfacet
  facet normal 0.866026 0.5 0
    outer loop
      vertex 8.09017 5.87785 -100
      vertex 9.13545 4.06737 -7.5
      vertex 9.13545 4.06737 -100
    endloop
  endfacet
  facet normal 0.866026 0.5 0
    outer loop
      vertex 9.13545 4.06737 100
      vertex 8.09017 5.87785 7.5
      vertex 8.09017 5.87785 100
    endloop
  endfacet
  facet normal 0.866026 0.5 0
    outer loop
      vertex 8.09017 5.87785 7.5
      vertex 9.13545 4.06737 100
      vertex 9.13545 4.06737 7.5
    endloop
  endfacet
  facet normal -0.994522 0.104526 0
    outer loop
      vertex -10 0 -100
      vertex -9.78148 2.07912 -7.5
      vertex -9.78148 2.07912 -100
    endloop
  endfacet
  facet normal -0.994522 0.104526 0
    outer loop
      vertex -9.78148 2.07912 -7.5
      vertex -10 0 -100
      vertex -10 0 -7.5
    endloop
  endfacet
  facet normal -0.994522 0.104526 0
    outer loop
      vertex -10 0 7.5
      vertex -9.78148 2.07912 100
      vertex -9.78148 2.07912 7.5
    endloop
  endfacet
  facet normal -0.994522 0.104526 0
    outer loop
      vertex -9.78148 2.07912 100
      vertex -10 0 7.5
      vertex -10 0 100
    endloop
  endfacet
  facet normal 0.994522 0.104526 0
    outer loop
      vertex 10 0 100
      vertex 9.78148 2.07912 7.5
      vertex 9.78148 2.07912 100
    endloop
  endfacet
  facet normal 0.994522 0.104526 0
    outer loop
      vertex 9.78148 2.07912 7.5
      vertex 10 0 100
      vertex 10 0 7.5
    endloop
  endfacet
  facet normal 0.994522 0.104526 0
    outer loop
      vertex 10 0 -7.5
      vertex 9.78148 2.07912 -100
      vertex 9.78148 2.07912 -7.5
    endloop
  endfacet
  facet normal 0.994522 0.104526 0
    outer loop
      vertex 9.78148 2.07912 -100
      vertex 10 0 -7.5
      vertex 10 0 -100
    endloop
  endfacet
  facet normal -0.866026 -0.5 0
    outer loop
      vertex -8.09017 -5.87785 -100
      vertex -9.13545 -4.06737 -7.5
      vertex -9.13545 -4.06737 -100
    endloop
  endfacet
  facet normal -0.866026 -0.5 0
    outer loop
      vertex -9.13545 -4.06737 -7.5
      vertex -8.09017 -5.87785 -100
      vertex -8.09017 -5.87785 -7.5
    endloop
  endfacet
  facet normal -0.866026 -0.5 0
    outer loop
      vertex -8.09017 -5.87785 7.5
      vertex -9.13545 -4.06737 100
      vertex -9.13545 -4.06737 7.5
    endloop
  endfacet
  facet normal -0.866026 -0.5 0
    outer loop
      vertex -9.13545 -4.06737 100
      vertex -8.09017 -5.87785 7.5
      vertex -8.09017 -5.87785 100
    endloop
  endfacet
  facet normal -0.743147 -0.669129 0
    outer loop
      vertex -6.69131 -7.43145 -100
      vertex -8.09017 -5.87785 -7.5
      vertex -8.09017 -5.87785 -100
    endloop
  endfacet
  facet normal -0.743147 -0.669129 0
    outer loop
      vertex -8.09017 -5.87785 -7.5
      vertex -6.69131 -7.43145 -100
      vertex -6.69131 -7.43145 -7.5
    endloop
  endfacet
  facet normal -0.743147 -0.669129 0
    outer loop
      vertex -6.69131 -7.43145 7.5
      vertex -8.09017 -5.87785 100
      vertex -8.09017 -5.87785 7.5
    endloop
  endfacet
  facet normal -0.743147 -0.669129 0
    outer loop
      vertex -8.09017 -5.87785 100
      vertex -6.69131 -7.43145 7.5
      vertex -6.69131 -7.43145 100
    endloop
  endfacet
  facet normal -0.951055 0.309021 0
    outer loop
      vertex -9.78148 2.07912 -100
      vertex -9.13545 4.06737 -7.5
      vertex -9.13545 4.06737 -100
    endloop
  endfacet
  facet normal -0.951055 0.309021 0
    outer loop
      vertex -9.13545 4.06737 -7.5
      vertex -9.78148 2.07912 -100
      vertex -9.78148 2.07912 -7.5
    endloop
  endfacet
  facet normal -0.951055 0.309021 0
    outer loop
      vertex -9.78148 2.07912 7.5
      vertex -9.13545 4.06737 100
      vertex -9.13545 4.06737 7.5
    endloop
  endfacet
  facet normal -0.951055 0.309021 0
    outer loop
      vertex -9.13545 4.06737 100
      vertex -9.78148 2.07912 7.5
      vertex -9.78148 2.07912 100
    endloop
  endfacet
  facet normal 0 -1 0
    outer loop
      vertex -1.04528 -9.94522 -100
      vertex 1.04528 -9.94522 -7.5
      vertex -1.04528 -9.94522 -7.5
    endloop
  endfacet
  facet normal 0 -1 -0
    outer loop
      vertex 1.04528 -9.94522 -7.5
      vertex -1.04528 -9.94522 -100
      vertex 1.04528 -9.94522 -100
    endloop
  endfacet
  facet normal 0 -1 0
    outer loop
      vertex -1.04528 -9.94522 7.5
      vertex 1.04528 -9.94522 100
      vertex -1.04528 -9.94522 100
    endloop
  endfacet
  facet normal 0 -1 -0
    outer loop
      vertex 1.04528 -9.94522 100
      vertex -1.04528 -9.94522 7.5
      vertex 1.04528 -9.94522 7.5
    endloop
  endfacet
  facet normal 0.406736 -0.913546 0
    outer loop
      vertex 3.09017 -9.51056 -100
      vertex 5 -8.66025 -7.5
      vertex 3.09017 -9.51056 -7.5
    endloop
  endfacet
  facet normal 0.406736 -0.913546 0
    outer loop
      vertex 5 -8.66025 -7.5
      vertex 3.09017 -9.51056 -100
      vertex 5 -8.66025 -100
    endloop
  endfacet
  facet normal 0.406736 -0.913546 0
    outer loop
      vertex 3.09017 -9.51056 7.5
      vertex 5 -8.66025 100
      vertex 3.09017 -9.51056 100
    endloop
  endfacet
  facet normal 0.406736 -0.913546 0
    outer loop
      vertex 5 -8.66025 100
      vertex 3.09017 -9.51056 7.5
      vertex 5 -8.66025 7.5
    endloop
  endfacet
  facet normal -0.207914 0.978147 0
    outer loop
      vertex -1.04528 9.94522 7.5
      vertex -3.09017 9.51056 100
      vertex -1.04528 9.94522 100
    endloop
  endfacet
  facet normal -0.207914 0.978147 0
    outer loop
      vertex -3.09017 9.51056 100
      vertex -1.04528 9.94522 7.5
      vertex -3.09017 9.51056 7.5
    endloop
  endfacet
  facet normal -0.207914 0.978147 0
    outer loop
      vertex -1.04528 9.94522 -100
      vertex -3.09017 9.51056 -7.5
      vertex -1.04528 9.94522 -7.5
    endloop
  endfacet
  facet normal -0.207914 0.978147 0
    outer loop
      vertex -3.09017 9.51056 -7.5
      vertex -1.04528 9.94522 -100
      vertex -3.09017 9.51056 -100
    endloop
  endfacet
  facet normal 0.951055 0.309021 0
    outer loop
      vertex 9.78148 2.07912 100
      vertex 9.13545 4.06737 7.5
      vertex 9.13545 4.06737 100
    endloop
  endfacet
  facet normal 0.951055 0.309021 0
    outer loop
      vertex 9.13545 4.06737 7.5
      vertex 9.78148 2.07912 100
      vertex 9.78148 2.07912 7.5
    endloop
  endfacet
  facet normal 0.951055 0.309021 0
    outer loop
      vertex 9.78148 2.07912 -7.5
      vertex 9.13545 4.06737 -100
      vertex 9.13545 4.06737 -7.5
    endloop
  endfacet
  facet normal 0.951055 0.309021 0
    outer loop
      vertex 9.13545 4.06737 -100
      vertex 9.78148 2.07912 -7.5
      vertex 9.78148 2.07912 -100
    endloop
  endfacet
  facet normal 0.207914 -0.978147 0
    outer loop
      vertex 1.04528 -9.94522 -100
      vertex 3.09017 -9.51056 -7.5
      vertex 1.04528 -9.94522 -7.5
    endloop
  endfacet
  facet normal 0.207914 -0.978147 0
    outer loop
      vertex 3.09017 -9.51056 -7.5
      vertex 1.04528 -9.94522 -100
      vertex 3.09017 -9.51056 -100
    endloop
  endfacet
  facet normal 0.207914 -0.978147 0
    outer loop
      vertex 1.04528 -9.94522 7.5
      vertex 3.09017 -9.51056 100
      vertex 1.04528 -9.94522 100
    endloop
  endfacet
  facet normal 0.207914 -0.978147 0
    outer loop
      vertex 3.09017 -9.51056 100
      vertex 1.04528 -9.94522 7.5
      vertex 3.09017 -9.51056 7.5
    endloop
  endfacet
  facet normal 0 0 -1
    outer loop
      vertex 9.78148 -2.07912 -100
      vertex 9.78148 2.07912 -100
      vertex 10 0 -100
    endloop
  endfacet
  facet normal 0 0 -1
    outer loop
      vertex 9.13545 -4.06737 -100
      vertex 9.78148 2.07912 -100
      vertex 9.78148 -2.07912 -100
    endloop
  endfacet
  facet normal 0 0 -1
    outer loop
      vertex 9.13545 -4.06737 -100
      vertex 9.13545 4.06737 -100
      vertex 9.78148 2.07912 -100
    endloop
  endfacet
  facet normal 0 0 -1
    outer loop
      vertex 8.09017 -5.87785 -100
      vertex 9.13545 4.06737 -100
      vertex 9.13545 -4.06737 -100
    endloop
  endfacet
  facet normal 0 0 -1
    outer loop
      vertex 8.09017 -5.87785 -100
      vertex 8.09017 5.87785 -100
      vertex 9.13545 4.06737 -100
    endloop
  endfacet
  facet normal 0 0 -1
    outer loop
      vertex 6.69131 -7.43145 -100
      vertex 8.09017 5.87785 -100
      vertex 8.09017 -5.87785 -100
    endloop
  endfacet
  facet normal 0 0 -1
    outer loop
      vertex 6.69131 -7.43145 -100
      vertex 6.69131 7.43145 -100
      vertex 8.09017 5.87785 -100
    endloop
  endfacet
  facet normal 0 0 -1
    outer loop
      vertex 5 -8.66025 -100
      vertex 6.69131 7.43145 -100
      vertex 6.69131 -7.43145 -100
    endloop
  endfacet
  facet normal 0 0 -1
    outer loop
      vertex 5 -8.66025 -100
      vertex 5 8.66025 -100
      vertex 6.69131 7.43145 -100
    endloop
  endfacet
  facet normal 0 0 -1
    outer loop
      vertex 3.09017 -9.51056 -100
      vertex 5 8.66025 -100
      vertex 5 -8.66025 -100
    endloop
  endfacet
  facet normal 0 0 -1
    outer loop
      vertex 3.09017 -9.51056 -100
      vertex 3.09017 9.51056 -100
      vertex 5 8.66025 -100
    endloop
  endfacet
  facet normal 0 0 -1
    outer loop
      vertex 1.04528 -9.94522 -100
      vertex 3.09017 9.51056 -100
      vertex 3.09017 -9.51056 -100
    endloop
  endfacet
  facet normal 0 0 -1
    outer loop
      vertex 1.04528 -9.94522 -100
      vertex 1.04528 9.94522 -100
      vertex 3.09017 9.51056 -100
    endloop
  endfacet
  facet normal 0 0 -1
    outer loop
      vertex -1.04528 -9.94522 -100
      vertex 1.04528 9.94522 -100
      vertex 1.04528 -9.94522 -100
    endloop
  endfacet
  facet normal 0 0 -1
    outer loop
      vertex -1.04528 -9.94522 -100
      vertex -1.04528 9.94522 -100
      vertex 1.04528 9.94522 -100
    endloop
  endfacet
  facet normal 0 0 -1
    outer loop
      vertex -3.09017 -9.51056 -100
      vertex -1.04528 9.94522 -100
      vertex -1.04528 -9.94522 -100
    endloop
  endfacet
  facet normal 0 0 -1
    outer loop
      vertex -3.09017 -9.51056 -100
      vertex -3.09017 9.51056 -100
      vertex -1.04528 9.94522 -100
    endloop
  endfacet
  facet normal 0 0 -1
    outer loop
      vertex -5 -8.66025 -100
      vertex -3.09017 9.51056 -100
      vertex -3.09017 -9.51056 -100
    endloop
  endfacet
  facet normal 0 0 -1
    outer loop
      vertex -5 -8.66025 -100
      vertex -5 8.66025 -100
      vertex -3.09017 9.51056 -100
    endloop
  endfacet
  facet normal 0 0 -1
    outer loop
      vertex -6.69131 -7.43145 -100
      vertex -5 8.66025 -100
      vertex -5 -8.66025 -100
    endloop
  endfacet
  facet normal 0 0 -1
    outer loop
      vertex -6.69131 -7.43145 -100
      vertex -6.69131 7.43145 -100
      vertex -5 8.66025 -100
    endloop
  endfacet
  facet normal 0 0 -1
    outer loop
      vertex -8.09017 -5.87785 -100
      vertex -6.69131 7.43145 -100
      vertex -6.69131 -7.43145 -100
    endloop
  endfacet
  facet normal 0 0 -1
    outer loop
      vertex -8.09017 -5.87785 -100
      vertex -8.09017 5.87785 -100
      vertex -6.69131 7.43145 -100
    endloop
  endfacet
  facet normal 0 0 -1
    outer loop
      vertex -9.13545 -4.06737 -100
      vertex -8.09017 5.87785 -100
      vertex -8.09017 -5.87785 -100
    endloop
  endfacet
  facet normal 0 0 -1
    outer loop
      vertex -9.13545 -4.06737 -100
      vertex -9.13545 4.06737 -100
      vertex -8.09017 5.87785 -100
    endloop
  endfacet
  facet normal 0 0 -1
    outer loop
      vertex -9.78148 -2.07912 -100
      vertex -9.13545 4.06737 -100
      vertex -9.13545 -4.06737 -100
    endloop
  endfacet
  facet normal 0 0 -1
    outer loop
      vertex -9.78148 -2.07912 -100
      vertex -9.78148 2.07912 -100
      vertex -9.13545 4.06737 -100
    endloop
  endfacet
  facet normal 0 -0 -1
    outer loop
      vertex -9.78148 2.07912 -100
      vertex -9.78148 -2.07912 -100
      vertex -10 0 -100
    endloop
  endfacet
  facet normal 0.406736 0.913546 -0
    outer loop
      vertex 5 8.66025 -100
      vertex 3.09017 9.51056 -7.5
      vertex 5 8.66025 -7.5
    endloop
  endfacet
  facet normal 0.406736 0.913546 0
    outer loop
      vertex 3.09017 9.51056 -7.5
      vertex 5 8.66025 -100
      vertex 3.09017 9.51056 -100
    endloop
  endfacet
  facet normal 0.406736 0.913546 -0
    outer loop
      vertex 5 8.66025 7.5
      vertex 3.09017 9.51056 100
      vertex 5 8.66025 100
    endloop
  endfacet
  facet normal 0.406736 0.913546 0
    outer loop
      vertex 3.09017 9.51056 100
      vertex 5 8.66025 7.5
      vertex 3.09017 9.51056 7.5
    endloop
  endfacet
  facet normal -0.406736 0.913546 0
    outer loop
      vertex -3.09017 9.51056 7.5
      vertex -5 8.66025 100
      vertex -3.09017 9.51056 100
    endloop
  endfacet
  facet normal -0.406736 0.913546 0
    outer loop
      vertex -5 8.66025 100
      vertex -3.09017 9.51056 7.5
      vertex -5 8.66025 7.5
    endloop
  endfacet
  facet normal -0.406736 0.913546 0
    outer loop
      vertex -3.09017 9.51056 -100
      vertex -5 8.66025 -7.5
      vertex -3.09017 9.51056 -7.5
    endloop
  endfacet
  facet normal -0.406736 0.913546 0
    outer loop
      vertex -5 8.66025 -7.5
      vertex -3.09017 9.51056 -100
      vertex -5 8.66025 -100
    endloop
  endfacet
  facet normal 0.866026 -0.5 0
    outer loop
      vertex 8.09017 -5.87785 100
      vertex 9.13545 -4.06737 7.5
      vertex 9.13545 -4.06737 100
    endloop
  endfacet
  facet normal 0.866026 -0.5 0
    outer loop
      vertex 9.13545 -4.06737 7.5
      vertex 8.09017 -5.87785 100
      vertex 8.09017 -5.87785 7.5
    endloop
  endfacet
  facet normal 0.866026 -0.5 0
    outer loop
      vertex 8.09017 -5.87785 -7.5
      vertex 9.13545 -4.06737 -100
      vertex 9.13545 -4.06737 -7.5
    endloop
  endfacet
  facet normal 0.866026 -0.5 0
    outer loop
      vertex 9.13545 -4.06737 -100
      vertex 8.09017 -5.87785 -7.5
      vertex 8.09017 -5.87785 -100
    endloop
  endfacet
  facet normal -0.406736 -0.913546 0
    outer loop
      vertex -5 -8.66025 -100
      vertex -3.09017 -9.51056 -7.5
      vertex -5 -8.66025 -7.5
    endloop
  endfacet
  facet normal -0.406736 -0.913546 -0
    outer loop
      vertex -3.09017 -9.51056 -7.5
      vertex -5 -8.66025 -100
      vertex -3.09017 -9.51056 -100
    endloop
  endfacet
  facet normal -0.406736 -0.913546 0
    outer loop
      vertex -5 -8.66025 7.5
      vertex -3.09017 -9.51056 100
      vertex -5 -8.66025 100
    endloop
  endfacet
  facet normal -0.406736 -0.913546 -0
    outer loop
      vertex -3.09017 -9.51056 100
      vertex -5 -8.66025 7.5
      vertex -3.09017 -9.51056 7.5
    endloop
  endfacet
  facet normal 0 1 -0
    outer loop
      vertex 1.04528 9.94522 7.5
      vertex -1.04528 9.94522 100
      vertex 1.04528 9.94522 100
    endloop
  endfacet
  facet normal 0 1 0
    outer loop
      vertex -1.04528 9.94522 100
      vertex 1.04528 9.94522 7.5
      vertex -1.04528 9.94522 7.5
    endloop
  endfacet
  facet normal 0 1 -0
    outer loop
      vertex 1.04528 9.94522 -100
      vertex -1.04528 9.94522 -7.5
      vertex 1.04528 9.94522 -7.5
    endloop
  endfacet
  facet normal 0 1 0
    outer loop
      vertex -1.04528 9.94522 -7.5
      vertex 1.04528 9.94522 -100
      vertex -1.04528 9.94522 -100
    endloop
  endfacet
  facet normal 0.743147 -0.669129 0
    outer loop
      vertex 6.69131 -7.43145 -7.5
      vertex 8.09017 -5.87785 -100
      vertex 8.09017 -5.87785 -7.5
    endloop
  endfacet
  facet normal 0.743147 -0.669129 0
    outer loop
      vertex 8.09017 -5.87785 -100
      vertex 6.69131 -7.43145 -7.5
      vertex 6.69131 -7.43145 -100
    endloop
  endfacet
  facet normal 0.743147 -0.669129 0
    outer loop
      vertex 6.69131 -7.43145 100
      vertex 8.09017 -5.87785 7.5
      vertex 8.09017 -5.87785 100
    endloop
  endfacet
  facet normal 0.743147 -0.669129 0
    outer loop
      vertex 8.09017 -5.87785 7.5
      vertex 6.69131 -7.43145 100
      vertex 6.69131 -7.43145 7.5
    endloop
  endfacet
  facet normal 0.743147 0.669129 0
    outer loop
      vertex 8.09017 5.87785 -7.5
      vertex 6.69131 7.43145 -100
      vertex 6.69131 7.43145 -7.5
    endloop
  endfacet
  facet normal 0.743147 0.669129 0
    outer loop
      vertex 6.69131 7.43145 -100
      vertex 8.09017 5.87785 -7.5
      vertex 8.09017 5.87785 -100
    endloop
  endfacet
  facet normal 0.743147 0.669129 0
    outer loop
      vertex 8.09017 5.87785 100
      vertex 6.69131 7.43145 7.5
      vertex 6.69131 7.43145 100
    endloop
  endfacet
  facet normal 0.743147 0.669129 0
    outer loop
      vertex 6.69131 7.43145 7.5
      vertex 8.09017 5.87785 100
      vertex 8.09017 5.87785 7.5
    endloop
  endfacet
  facet normal 0.207914 0.978147 -0
    outer loop
      vertex 3.09017 9.51056 7.5
      vertex 1.04528 9.94522 100
      vertex 3.09017 9.51056 100
    endloop
  endfacet
  facet normal 0.207914 0.978147 0
    outer loop
      vertex 1.04528 9.94522 100
      vertex 3.09017 9.51056 7.5
      vertex 1.04528 9.94522 7.5
    endloop
  endfacet
  facet normal 0.207914 0.978147 -0
    outer loop
      vertex 3.09017 9.51056 -100
      vertex 1.04528 9.94522 -7.5
      vertex 3.09017 9.51056 -7.5
    endloop
  endfacet
  facet normal 0.207914 0.978147 0
    outer loop
      vertex 1.04528 9.94522 -7.5
      vertex 3.09017 9.51056 -100
      vertex 1.04528 9.94522 -100
    endloop
  endfacet
  facet normal -0.951055 -0.309021 0
    outer loop
      vertex -9.13545 -4.06737 7.5
      vertex -9.78148 -2.07912 100
      vertex -9.78148 -2.07912 7.5
    endloop
  endfacet
  facet normal -0.951055 -0.309021 0
    outer loop
      vertex -9.78148 -2.07912 100
      vertex -9.13545 -4.06737 7.5
      vertex -9.13545 -4.06737 100
    endloop
  endfacet
  facet normal -0.951055 -0.309021 0
    outer loop
      vertex -9.13545 -4.06737 -100
      vertex -9.78148 -2.07912 -7.5
      vertex -9.78148 -2.07912 -100
    endloop
  endfacet
  facet normal -0.951055 -0.309021 0
    outer loop
      vertex -9.78148 -2.07912 -7.5
      vertex -9.13545 -4.06737 -100
      vertex -9.13545 -4.06737 -7.5
    endloop
  endfacet
  facet normal -0.587783 -0.809019 0
    outer loop
      vertex -6.69131 -7.43145 -100
      vertex -5 -8.66025 -7.5
      vertex -6.69131 -7.43145 -7.5
    endloop
  endfacet
  facet normal -0.587783 -0.809019 -0
    outer loop
      vertex -5 -8.66025 -7.5
      vertex -6.69131 -7.43145 -100
      vertex -5 -8.66025 -100
    endloop
  endfacet
  facet normal -0.587783 -0.809019 0
    outer loop
      vertex -6.69131 -7.43145 7.5
      vertex -5 -8.66025 100
      vertex -6.69131 -7.43145 100
    endloop
  endfacet
  facet normal -0.587783 -0.809019 -0
    outer loop
      vertex -5 -8.66025 100
      vertex -6.69131 -7.43145 7.5
      vertex -5 -8.66025 7.5
    endloop
  endfacet
  facet normal -0.743147 0.669129 0
    outer loop
      vertex -8.09017 5.87785 7.5
      vertex -6.69131 7.43145 100
      vertex -6.69131 7.43145 7.5
    endloop
  endfacet
  facet normal -0.743147 0.669129 0
    outer loop
      vertex -6.69131 7.43145 100
      vertex -8.09017 5.87785 7.5
      vertex -8.09017 5.87785 100
    endloop
  endfacet
  facet normal -0.743147 0.669129 0
    outer loop
      vertex -8.09017 5.87785 -100
      vertex -6.69131 7.43145 -7.5
      vertex -6.69131 7.43145 -100
    endloop
  endfacet
  facet normal -0.743147 0.669129 0
    outer loop
      vertex -6.69131 7.43145 -7.5
      vertex -8.09017 5.87785 -100
      vertex -8.09017 5.87785 -7.5
    endloop
  endfacet
  facet normal -0.587783 0.809019 0
    outer loop
      vertex -5 8.66025 7.5
      vertex -6.69131 7.43145 100
      vertex -5 8.66025 100
    endloop
  endfacet
  facet normal -0.587783 0.809019 0
    outer loop
      vertex -6.69131 7.43145 100
      vertex -5 8.66025 7.5
      vertex -6.69131 7.43145 7.5
    endloop
  endfacet
  facet normal -0.587783 0.809019 0
    outer loop
      vertex -5 8.66025 -100
      vertex -6.69131 7.43145 -7.5
      vertex -5 8.66025 -7.5
    endloop
  endfacet
  facet normal -0.587783 0.809019 0
    outer loop
      vertex -6.69131 7.43145 -7.5
      vertex -5 8.66025 -100
      vertex -6.69131 7.43145 -100
    endloop
  endfacet
  facet normal -0.994522 -0.104526 0
    outer loop
      vertex -9.78148 -2.07912 -100
      vertex -10 0 -7.5
      vertex -10 0 -100
    endloop
  endfacet
  facet normal -0.994522 -0.104526 0
    outer loop
      vertex -10 0 -7.5
      vertex -9.78148 -2.07912 -100
      vertex -9.78148 -2.07912 -7.5
    endloop
  endfacet
  facet normal -0.994522 -0.104526 0
    outer loop
      vertex -9.78148 -2.07912 7.5
      vertex -10 0 100
      vertex -10 0 7.5
    endloop
  endfacet
  facet normal -0.994522 -0.104526 0
    outer loop
      vertex -10 0 100
      vertex -9.78148 -2.07912 7.5
      vertex -9.78148 -2.07912 100
    endloop
  endfacet
  facet normal 0.951055 -0.309021 0
    outer loop
      vertex 9.13545 -4.06737 100
      vertex 9.78148 -2.07912 7.5
      vertex 9.78148 -2.07912 100
    endloop
  endfacet
  facet normal 0.951055 -0.309021 0
    outer loop
      vertex 9.78148 -2.07912 7.5
      vertex 9.13545 -4.06737 100
      vertex 9.13545 -4.06737 7.5
    endloop
  endfacet
  facet normal 0.951055 -0.309021 0
    outer loop
      vertex 9.13545 -4.06737 -7.5
      vertex 9.78148 -2.07912 -100
      vertex 9.78148 -2.07912 -7.5
    endloop
  endfacet
  facet normal 0.951055 -0.309021 0
    outer loop
      vertex 9.78148 -2.07912 -100
      vertex 9.13545 -4.06737 -7.5
      vertex 9.13545 -4.06737 -100
    endloop
  endfacet
  facet normal -0.207914 -0.978147 0
    outer loop
      vertex -3.09017 -9.51056 7.5
      vertex -1.04528 -9.94522 100
      vertex -3.09017 -9.51056 100
    endloop
  endfacet
  facet normal -0.207914 -0.978147 -0
    outer loop
      vertex -1.04528 -9.94522 100
      vertex -3.09017 -9.51056 7.5
      vertex -1.04528 -9.94522 7.5
    endloop
  endfacet
  facet normal -0.207914 -0.978147 0
    outer loop
      vertex -3.09017 -9.51056 -100
      vertex -1.04528 -9.94522 -7.5
      vertex -3.09017 -9.51056 -7.5
    endloop
  endfacet
  facet normal -0.207914 -0.978147 -0
    outer loop
      vertex -1.04528 -9.94522 -7.5
      vertex -3.09017 -9.51056 -100
      vertex -1.04528 -9.94522 -100
    endloop
  endfacet
  facet normal 0 0 1
    outer loop
      vertex 9.78148 2.07912 100
      vertex 9.78148 -2.07912 100
      vertex 10 0 100
    endloop
  endfacet
  facet normal 0 0 1
    outer loop
      vertex 9.13545 4.06737 100
      vertex 9.78148 -2.07912 100
      vertex 9.78148 2.07912 100
    endloop
  endfacet
  facet normal 0 0 1
    outer loop
      vertex 9.13545 4.06737 100
      vertex 9.13545 -4.06737 100
      vertex 9.78148 -2.07912 100
    endloop
  endfacet
  facet normal 0 0 1
    outer loop
      vertex 8.09017 5.87785 100
      vertex 9.13545 -4.06737 100
      vertex 9.13545 4.06737 100
    endloop
  endfacet
  facet normal 0 0 1
    outer loop
      vertex 8.09017 5.87785 100
      vertex 8.09017 -5.87785 100
      vertex 9.13545 -4.06737 100
    endloop
  endfacet
  facet normal 0 0 1
    outer loop
      vertex 6.69131 7.43145 100
      vertex 8.09017 -5.87785 100
      vertex 8.09017 5.87785 100
    endloop
  endfacet
  facet normal 0 0 1
    outer loop
      vertex 6.69131 7.43145 100
      vertex 6.69131 -7.43145 100
      vertex 8.09017 -5.87785 100
    endloop
  endfacet
  facet normal 0 0 1
    outer loop
      vertex 5 8.66025 100
      vertex 6.69131 -7.43145 100
      vertex 6.69131 7.43145 100
    endloop
  endfacet
  facet normal 0 0 1
    outer loop
      vertex 5 8.66025 100
      vertex 5 -8.66025 100
      vertex 6.69131 -7.43145 100
    endloop
  endfacet
  facet normal 0 0 1
    outer loop
      vertex 3.09017 9.51056 100
      vertex 5 -8.66025 100
      vertex 5 8.66025 100
    endloop
  endfacet
  facet normal 0 0 1
    outer loop
      vertex 3.09017 9.51056 100
      vertex 3.09017 -9.51056 100
      vertex 5 -8.66025 100
    endloop
  endfacet
  facet normal 0 0 1
    outer loop
      vertex 1.04528 9.94522 100
      vertex 3.09017 -9.51056 100
      vertex 3.09017 9.51056 100
    endloop
  endfacet
  facet normal 0 0 1
    outer loop
      vertex 1.04528 9.94522 100
      vertex 1.04528 -9.94522 100
      vertex 3.09017 -9.51056 100
    endloop
  endfacet
  facet normal -0 0 1
    outer loop
      vertex -1.04528 9.94522 100
      vertex 1.04528 -9.94522 100
      vertex 1.04528 9.94522 100
    endloop
  endfacet
  facet normal 0 0 1
    outer loop
      vertex -1.04528 9.94522 100
      vertex -1.04528 -9.94522 100
      vertex 1.04528 -9.94522 100
    endloop
  endfacet
  facet normal -0 0 1
    outer loop
      vertex -3.09017 9.51056 100
      vertex -1.04528 -9.94522 100
      vertex -1.04528 9.94522 100
    endloop
  endfacet
  facet normal 0 0 1
    outer loop
      vertex -3.09017 9.51056 100
      vertex -3.09017 -9.51056 100
      vertex -1.04528 -9.94522 100
    endloop
  endfacet
  facet normal -0 0 1
    outer loop
      vertex -5 8.66025 100
      vertex -3.09017 -9.51056 100
      vertex -3.09017 9.51056 100
    endloop
  endfacet
  facet normal 0 0 1
    outer loop
      vertex -5 8.66025 100
      vertex -5 -8.66025 100
      vertex -3.09017 -9.51056 100
    endloop
  endfacet
  facet normal -0 0 1
    outer loop
      vertex -6.69131 7.43145 100
      vertex -5 -8.66025 100
      vertex -5 8.66025 100
    endloop
  endfacet
  facet normal 0 0 1
    outer loop
      vertex -6.69131 7.43145 100
      vertex -6.69131 -7.43145 100
      vertex -5 -8.66025 100
    endloop
  endfacet
  facet normal -0 0 1
    outer loop
      vertex -8.09017 5.87785 100
      vertex -6.69131 -7.43145 100
      vertex -6.69131 7.43145 100
    endloop
  endfacet
  facet normal 0 0 1
    outer loop
      vertex -8.09017 5.87785 100
      vertex -8.09017 -5.87785 100
      vertex -6.69131 -7.43145 100
    endloop
  endfacet
  facet normal -0 0 1
    outer loop
      vertex -9.13545 4.06737 100
      vertex -8.09017 -5.87785 100
      vertex -8.09017 5.87785 100
    endloop
  endfacet
  facet normal 0 0 1
    outer loop
      vertex -9.13545 4.06737 100
      vertex -9.13545 -4.06737 100
      vertex -8.09017 -5.87785 100
    endloop
  endfacet
  facet normal -0 0 1
    outer loop
      vertex -9.78148 2.07912 100
      vertex -9.13545 -4.06737 100
      vertex -9.13545 4.06737 100
    endloop
  endfacet
  facet normal 0 0 1
    outer loop
      vertex -9.78148 2.07912 100
      vertex -9.78148 -2.07912 100
      vertex -9.13545 -4.06737 100
    endloop
  endfacet
  facet normal 0 -0 1
    outer loop
      vertex -9.78148 -2.07912 100
      vertex -9.78148 2.07912 100
      vertex -10 0 100
    endloop
  endfacet
endsolid OpenSCAD_Model
